<?xml version="1.0" encoding="UTF-8"?>
<svg width="300" height="300" viewBox="0 0 300 300" fill="none" xmlns="http://www.w3.org/2000/svg">
  <path d="M150 90C167.673 90 182 75.6731 182 58C182 40.3269 167.673 26 150 26C132.327 26 118 40.3269 118 58C118 75.6731 132.327 90 150 90Z" fill="#4285F4"/>
  <path d="M241 149H281L250 180H210L241 149Z" fill="#4285F4"/>
  <path d="M315 150C315 232.843 247.843 300 165 300C82.1573 300 15 232.843 15 150C15 67.1573 82.1573 0 165 0" stroke="#4285F4" stroke-width="0"/>
  <path d="M241 150V300C241 318.778 225.778 334 207 334H150C131.222 334 116 318.778 116 300V240C116 221.222 131.222 206 150 206H241V150Z" fill="#4285F4"/>
</svg>
